<mxfile host="app.diagrams.net" agent="Mozilla/5.0 (Windows NT 10.0; Win64; x64) AppleWebKit/537.36 (KHTML, like Gecko) Chrome/134.0.0.0 Safari/537.36" version="26.1.0">
  <diagram name="PÃ¡gina-1" id="0cUd6Pi6ef_6nX6PbWxI">
    <mxGraphModel dx="1687" dy="908" grid="1" gridSize="10" guides="1" tooltips="1" connect="1" arrows="1" fold="1" page="1" pageScale="1" pageWidth="827" pageHeight="1169" math="0" shadow="0">
      <root>
        <mxCell id="0" />
        <mxCell id="1" parent="0" />
        <mxCell id="igoxWujNZboYhbwjS_xZ-7" style="edgeStyle=orthogonalEdgeStyle;rounded=0;orthogonalLoop=1;jettySize=auto;html=1;exitX=0.5;exitY=1;exitDx=0;exitDy=0;exitPerimeter=0;entryX=0.5;entryY=0;entryDx=0;entryDy=0;" edge="1" parent="1" source="igoxWujNZboYhbwjS_xZ-1" target="igoxWujNZboYhbwjS_xZ-6">
          <mxGeometry relative="1" as="geometry" />
        </mxCell>
        <mxCell id="igoxWujNZboYhbwjS_xZ-1" value="&lt;span style=&quot;background-color: transparent; color: light-dark(rgb(0, 0, 0), rgb(255, 255, 255));&quot;&gt;INICIO&lt;/span&gt;" style="strokeWidth=2;html=1;shape=mxgraph.flowchart.start_1;whiteSpace=wrap;fillColor=#d5e8d4;strokeColor=#82b366;" vertex="1" parent="1">
          <mxGeometry x="364" y="10" width="100" height="60" as="geometry" />
        </mxCell>
        <mxCell id="igoxWujNZboYhbwjS_xZ-2" value="FIM" style="strokeWidth=2;html=1;shape=mxgraph.flowchart.start_1;whiteSpace=wrap;fillColor=#d5e8d4;strokeColor=#82b366;" vertex="1" parent="1">
          <mxGeometry x="364" y="870" width="100" height="60" as="geometry" />
        </mxCell>
        <mxCell id="igoxWujNZboYhbwjS_xZ-3" value="CONTADOR" style="html=1;strokeWidth=2;shape=manualInput;whiteSpace=wrap;rounded=1;size=26;arcSize=11;fillColor=#dae8fc;strokeColor=#6c8ebf;" vertex="1" parent="1">
          <mxGeometry x="364" y="160" width="100" height="60" as="geometry" />
        </mxCell>
        <mxCell id="igoxWujNZboYhbwjS_xZ-6" value="SOMA_PAR = 0&lt;div&gt;SOMA_IMPAR = 0&lt;/div&gt;" style="rounded=1;whiteSpace=wrap;html=1;absoluteArcSize=1;arcSize=14;strokeWidth=2;fillColor=#f5f5f5;fontColor=#333333;strokeColor=#666666;" vertex="1" parent="1">
          <mxGeometry x="354" y="90" width="120" height="50" as="geometry" />
        </mxCell>
        <mxCell id="igoxWujNZboYhbwjS_xZ-9" style="edgeStyle=orthogonalEdgeStyle;rounded=0;orthogonalLoop=1;jettySize=auto;html=1;exitX=0.5;exitY=1;exitDx=0;exitDy=0;entryX=0.49;entryY=0.25;entryDx=0;entryDy=0;entryPerimeter=0;" edge="1" parent="1" source="igoxWujNZboYhbwjS_xZ-6" target="igoxWujNZboYhbwjS_xZ-3">
          <mxGeometry relative="1" as="geometry" />
        </mxCell>
        <mxCell id="igoxWujNZboYhbwjS_xZ-11" value="&lt;span style=&quot;text-wrap-mode: nowrap;&quot;&gt;CONTADOR; CONTADOR &amp;gt;= 0; CONTADOR --&lt;/span&gt;" style="shape=hexagon;perimeter=hexagonPerimeter2;whiteSpace=wrap;html=1;fixedSize=1;fillColor=#f8cecc;strokeColor=#b85450;" vertex="1" parent="1">
          <mxGeometry x="261" y="300" width="306" height="80" as="geometry" />
        </mxCell>
        <mxCell id="igoxWujNZboYhbwjS_xZ-15" style="edgeStyle=orthogonalEdgeStyle;rounded=0;orthogonalLoop=1;jettySize=auto;html=1;exitX=0.5;exitY=1;exitDx=0;exitDy=0;exitPerimeter=0;entryX=0.5;entryY=0;entryDx=0;entryDy=0;" edge="1" parent="1" source="igoxWujNZboYhbwjS_xZ-13" target="igoxWujNZboYhbwjS_xZ-11">
          <mxGeometry relative="1" as="geometry" />
        </mxCell>
        <mxCell id="igoxWujNZboYhbwjS_xZ-13" value="" style="verticalLabelPosition=bottom;verticalAlign=top;html=1;shape=mxgraph.flowchart.on-page_reference;fillColor=#f5f5f5;gradientColor=#b3b3b3;strokeColor=#666666;" vertex="1" parent="1">
          <mxGeometry x="394" y="240" width="40" height="40" as="geometry" />
        </mxCell>
        <mxCell id="igoxWujNZboYhbwjS_xZ-16" style="edgeStyle=orthogonalEdgeStyle;rounded=0;orthogonalLoop=1;jettySize=auto;html=1;exitX=0.5;exitY=1;exitDx=0;exitDy=0;entryX=0.5;entryY=0;entryDx=0;entryDy=0;entryPerimeter=0;" edge="1" parent="1" source="igoxWujNZboYhbwjS_xZ-3" target="igoxWujNZboYhbwjS_xZ-13">
          <mxGeometry relative="1" as="geometry" />
        </mxCell>
        <mxCell id="igoxWujNZboYhbwjS_xZ-21" style="edgeStyle=orthogonalEdgeStyle;rounded=0;orthogonalLoop=1;jettySize=auto;html=1;exitX=1;exitY=0.5;exitDx=0;exitDy=0;exitPerimeter=0;entryX=0.5;entryY=0;entryDx=0;entryDy=0;" edge="1" parent="1" source="igoxWujNZboYhbwjS_xZ-18" target="igoxWujNZboYhbwjS_xZ-20">
          <mxGeometry relative="1" as="geometry" />
        </mxCell>
        <mxCell id="igoxWujNZboYhbwjS_xZ-22" value="S" style="edgeLabel;html=1;align=center;verticalAlign=middle;resizable=0;points=[];" vertex="1" connectable="0" parent="igoxWujNZboYhbwjS_xZ-21">
          <mxGeometry x="-0.051" relative="1" as="geometry">
            <mxPoint as="offset" />
          </mxGeometry>
        </mxCell>
        <mxCell id="igoxWujNZboYhbwjS_xZ-18" value="N % 2 = 0" style="strokeWidth=2;html=1;shape=mxgraph.flowchart.decision;whiteSpace=wrap;fillColor=#ffe6cc;strokeColor=#d79b00;" vertex="1" parent="1">
          <mxGeometry x="364" y="400" width="100" height="100" as="geometry" />
        </mxCell>
        <mxCell id="igoxWujNZboYhbwjS_xZ-19" style="edgeStyle=orthogonalEdgeStyle;rounded=0;orthogonalLoop=1;jettySize=auto;html=1;exitX=0.5;exitY=1;exitDx=0;exitDy=0;entryX=0.5;entryY=0;entryDx=0;entryDy=0;entryPerimeter=0;" edge="1" parent="1" source="igoxWujNZboYhbwjS_xZ-11" target="igoxWujNZboYhbwjS_xZ-18">
          <mxGeometry relative="1" as="geometry" />
        </mxCell>
        <mxCell id="igoxWujNZboYhbwjS_xZ-20" value="SOMA_PAR = SOMA_PAR + N" style="rounded=1;whiteSpace=wrap;html=1;absoluteArcSize=1;arcSize=14;strokeWidth=2;fillColor=#f5f5f5;fontColor=#333333;strokeColor=#666666;" vertex="1" parent="1">
          <mxGeometry x="520" y="500" width="180" height="50" as="geometry" />
        </mxCell>
        <mxCell id="igoxWujNZboYhbwjS_xZ-23" value="SOMA_IMPAR = SOMA_IMPAR + N" style="rounded=1;whiteSpace=wrap;html=1;absoluteArcSize=1;arcSize=14;strokeWidth=2;fillColor=#f5f5f5;fontColor=#333333;strokeColor=#666666;" vertex="1" parent="1">
          <mxGeometry x="110" y="500" width="210" height="50" as="geometry" />
        </mxCell>
        <mxCell id="igoxWujNZboYhbwjS_xZ-24" style="edgeStyle=orthogonalEdgeStyle;rounded=0;orthogonalLoop=1;jettySize=auto;html=1;exitX=0;exitY=0.5;exitDx=0;exitDy=0;exitPerimeter=0;entryX=0.452;entryY=0.02;entryDx=0;entryDy=0;entryPerimeter=0;" edge="1" parent="1" source="igoxWujNZboYhbwjS_xZ-18" target="igoxWujNZboYhbwjS_xZ-23">
          <mxGeometry relative="1" as="geometry" />
        </mxCell>
        <mxCell id="igoxWujNZboYhbwjS_xZ-25" value="N" style="edgeLabel;html=1;align=center;verticalAlign=middle;resizable=0;points=[];" vertex="1" connectable="0" parent="igoxWujNZboYhbwjS_xZ-24">
          <mxGeometry x="-0.3241" y="3" relative="1" as="geometry">
            <mxPoint as="offset" />
          </mxGeometry>
        </mxCell>
        <mxCell id="igoxWujNZboYhbwjS_xZ-26" value="" style="verticalLabelPosition=bottom;verticalAlign=top;html=1;shape=mxgraph.flowchart.on-page_reference;fillColor=#f5f5f5;gradientColor=#b3b3b3;strokeColor=#666666;" vertex="1" parent="1">
          <mxGeometry x="394" y="610" width="40" height="40" as="geometry" />
        </mxCell>
        <mxCell id="igoxWujNZboYhbwjS_xZ-27" style="edgeStyle=orthogonalEdgeStyle;rounded=0;orthogonalLoop=1;jettySize=auto;html=1;exitX=0.5;exitY=1;exitDx=0;exitDy=0;entryX=0;entryY=0.5;entryDx=0;entryDy=0;entryPerimeter=0;" edge="1" parent="1" source="igoxWujNZboYhbwjS_xZ-23" target="igoxWujNZboYhbwjS_xZ-26">
          <mxGeometry relative="1" as="geometry" />
        </mxCell>
        <mxCell id="igoxWujNZboYhbwjS_xZ-28" style="edgeStyle=orthogonalEdgeStyle;rounded=0;orthogonalLoop=1;jettySize=auto;html=1;exitX=0.5;exitY=1;exitDx=0;exitDy=0;entryX=1;entryY=0.5;entryDx=0;entryDy=0;entryPerimeter=0;" edge="1" parent="1" source="igoxWujNZboYhbwjS_xZ-20" target="igoxWujNZboYhbwjS_xZ-26">
          <mxGeometry relative="1" as="geometry" />
        </mxCell>
        <mxCell id="igoxWujNZboYhbwjS_xZ-29" style="edgeStyle=orthogonalEdgeStyle;rounded=0;orthogonalLoop=1;jettySize=auto;html=1;exitX=0.5;exitY=1;exitDx=0;exitDy=0;exitPerimeter=0;entryX=0;entryY=0.5;entryDx=0;entryDy=0;entryPerimeter=0;" edge="1" parent="1" source="igoxWujNZboYhbwjS_xZ-26" target="igoxWujNZboYhbwjS_xZ-13">
          <mxGeometry relative="1" as="geometry">
            <Array as="points">
              <mxPoint x="414" y="670" />
              <mxPoint x="60" y="670" />
              <mxPoint x="60" y="260" />
            </Array>
          </mxGeometry>
        </mxCell>
        <mxCell id="igoxWujNZboYhbwjS_xZ-30" value="SOMA_PAR&lt;br&gt;SOMA_IMPAR" style="strokeWidth=2;html=1;shape=mxgraph.flowchart.display;whiteSpace=wrap;fillColor=#e1d5e7;strokeColor=#9673a6;" vertex="1" parent="1">
          <mxGeometry x="364" y="780" width="100" height="60" as="geometry" />
        </mxCell>
        <mxCell id="igoxWujNZboYhbwjS_xZ-32" style="edgeStyle=orthogonalEdgeStyle;rounded=0;orthogonalLoop=1;jettySize=auto;html=1;exitX=0.5;exitY=1;exitDx=0;exitDy=0;exitPerimeter=0;entryX=0.5;entryY=0;entryDx=0;entryDy=0;entryPerimeter=0;" edge="1" parent="1" source="igoxWujNZboYhbwjS_xZ-30" target="igoxWujNZboYhbwjS_xZ-2">
          <mxGeometry relative="1" as="geometry" />
        </mxCell>
        <mxCell id="igoxWujNZboYhbwjS_xZ-33" value="" style="verticalLabelPosition=bottom;verticalAlign=top;html=1;shape=mxgraph.flowchart.on-page_reference;fillColor=#f5f5f5;gradientColor=#b3b3b3;strokeColor=#666666;" vertex="1" parent="1">
          <mxGeometry x="394" y="700" width="40" height="40" as="geometry" />
        </mxCell>
        <mxCell id="igoxWujNZboYhbwjS_xZ-34" style="edgeStyle=orthogonalEdgeStyle;rounded=0;orthogonalLoop=1;jettySize=auto;html=1;exitX=0.5;exitY=1;exitDx=0;exitDy=0;exitPerimeter=0;entryX=0.5;entryY=0;entryDx=0;entryDy=0;entryPerimeter=0;" edge="1" parent="1" source="igoxWujNZboYhbwjS_xZ-33" target="igoxWujNZboYhbwjS_xZ-30">
          <mxGeometry relative="1" as="geometry" />
        </mxCell>
        <mxCell id="igoxWujNZboYhbwjS_xZ-35" style="edgeStyle=orthogonalEdgeStyle;rounded=0;orthogonalLoop=1;jettySize=auto;html=1;exitX=1;exitY=0.5;exitDx=0;exitDy=0;entryX=1;entryY=0.5;entryDx=0;entryDy=0;entryPerimeter=0;" edge="1" parent="1" source="igoxWujNZboYhbwjS_xZ-11" target="igoxWujNZboYhbwjS_xZ-33">
          <mxGeometry relative="1" as="geometry">
            <Array as="points">
              <mxPoint x="730" y="340" />
              <mxPoint x="730" y="720" />
            </Array>
          </mxGeometry>
        </mxCell>
      </root>
    </mxGraphModel>
  </diagram>
</mxfile>
